<svg id="PlayerIcon" xmlns="http://www.w3.org/2000/svg" viewBox="0 0 75 75"><defs><style>.cls-1{fill:#452f75;}</style></defs><path class="cls-1" d="M70.92,24.56h-4.4a29.63,29.63,0,0,0-58,0H4.08c-1.85,0-3.53,4.72-3.53,9.09,0,3.4,1.94,8.65,3.53,8.65H9.93c1,4,2.19,8.14,3.42,10.2,6.2,3.41,11.76,6.42,18.63,7.44v10C32,72.62,36.23,74,38.5,74S45,72.53,45,69.89V59.45q.47-.2.9-.42c.79-.22,1.57-.47,2.33-.73,5.9-2,10.77-4.94,12.66-5.8a96.88,96.88,0,0,0,4.29-10.2h5.7c1.59,0,3.53-5.25,3.53-8.65C74.45,29.28,72.78,24.56,70.92,24.56ZM2.81,33.72a.92.92,0,0,1,0-.16,20.3,20.3,0,0,1,.62-5.11c.4-1,2.47-3.18,3.44-3.18a67.62,67.62,0,0,0-.27,8.29c0,.34.06.68.12,1l-.6.09c-1.15.13-1.28-1.24-2-1.62C3.59,32.8,3.2,33.26,2.81,33.72ZM6.29,40.8a2.2,2.2,0,0,1-2-1.28A3.14,3.14,0,0,1,4,39.07a2.73,2.73,0,0,1,1.57,0,1.84,1.84,0,0,0,2.15-.41l.66,2.09A16.41,16.41,0,0,1,6.29,40.8ZM32,56.78c-1.55-.7-2.37-1.37-2.74-2.28a10.17,10.17,0,0,0,2.8.62c0,.22,0,.45,0,.68a8.28,8.28,0,0,0,.07,1S32,56.8,32,56.78Zm3.44,14.74A3.28,3.28,0,0,1,33.48,70V66.36c.81.09,1.58.15,2.35.2l-.22.28c-.55.71,0,3.14.2,3.75C36,71,35.42,71.21,35.42,71.52ZM36,61.37c-.22.49-1,2.74-.34,3.57a3.07,3.07,0,0,1,.2.27c-.75,0-1.52-.11-2.33-.2V60.69c.83-.09,1.62-.17,2.38-.22A1.5,1.5,0,0,1,36,61.37Zm-.84-2.83c.07.19.17.4.25.63-.61,0-1.23.1-1.88.18v-1a4.9,4.9,0,0,1,2.09-3,2.14,2.14,0,0,1,.08.87C35.55,57.13,34.76,57.66,35.11,58.54Zm0-4.42a6.59,6.59,0,0,0-1.76,1.52,5.53,5.53,0,0,1,2.83-4.77C36.08,52,35,53.63,35.12,54.12ZM43.47,70a6.21,6.21,0,0,1-4.6,2.11,4.32,4.32,0,0,0,.21-2.87c-.36-1-1.06-1.57-.68-2.59a48.52,48.52,0,0,0,5.07-.28Zm0-5a50.15,50.15,0,0,1-5.26.29c-.29-.65-.74-1.28-.68-1.72.1-.75.41-.55.67-1.62A3,3,0,0,0,38,60.38a43.34,43.34,0,0,1,5.45.3Zm0-5.67a42,42,0,0,0-5.95-.28c-.09-.25-.18-.48-.24-.69-.28-1,.1-1,.22-2.38a4.26,4.26,0,0,0-.09-1.33,5.39,5.39,0,0,1,1.07-.11,5.1,5.1,0,0,1,5,3.73Zm-5-6.13a6.07,6.07,0,0,0-1.35.14,2.41,2.41,0,0,1,0-.38,10.36,10.36,0,0,0,0-2.5,4.69,4.69,0,0,1,1.3-.18,5.31,5.31,0,0,1,5.13,5.35A6.54,6.54,0,0,0,38.48,53.21Zm8.81,2.32c-.77.31-1.56.59-2.35.84,0-.19,0-.38,0-.57A6.68,6.68,0,0,0,38.48,49a6.11,6.11,0,0,0-2.69.62,4.11,4.11,0,0,1-1.26-1.64,15.28,15.28,0,0,1,4.14-.56c5.26,0,9.69,2.58,9.69,5.63A3.82,3.82,0,0,1,47.29,55.53Zm12.14-7.36a40.13,40.13,0,0,1-9.21,6A4.91,4.91,0,0,0,50.37,53c0-4.28-5.14-7.64-11.7-7.64S27,48.72,27,53a6,6,0,0,0,2,4.3A4.76,4.76,0,0,1,27,56.74c-2.74-1.5-4.77-7.68-5.12-11.57-3.35-.79-8.58-2.82-9.79-4.77a6.58,6.58,0,0,1-1.22-3.08c6,3.26,13.92,6,27.26,6s21.53-4.49,25.51-6C62,43,60.49,46.94,59.43,48.17ZM50,20.81c3.09.53,9.71,2.76,10.68,3.79s.7,4.65,0,5.83c-1,1.74-4.94,4.68-7.76,6.2C55.54,28.44,52.28,23.63,50,20.81ZM38,16.75c-10.93,0-22.44,3.77-27.08,5.69,0-1.79.66-2.05,1.19-2.91C16.26,17.15,21.29,16,27.52,15a12.47,12.47,0,0,1,2.05-7.48A11.73,11.73,0,0,1,37.5,3.31,32.53,32.53,0,0,1,54.33,8.74c4.76,3.44,8.21,9.79,9.34,14C59,19.86,48.9,16.75,38,16.75Zm33.43,11.7A20.3,20.3,0,0,1,72,33.56c0,.28-.07.75-.16,1.33a.94.94,0,0,0-.66-.53,7.2,7.2,0,0,0-2.52.73A1,1,0,0,1,68,35a10.76,10.76,0,0,0,.19-1.47A64.16,64.16,0,0,0,68,25.27C68.94,25.27,71,27.47,71.41,28.45Zm-.83,11.07a2.22,2.22,0,0,1-2,1.28,16.57,16.57,0,0,1-2.13,0c.18-.55.35-1.07.5-1.57a7,7,0,0,1,2.31.07,3.54,3.54,0,0,0,1.6-.29C70.75,39.2,70.66,39.37,70.58,39.52Z"/></svg>