<?xml version="1.0" encoding="UTF-8" standalone="no"?><!DOCTYPE svg PUBLIC "-//W3C//DTD SVG 1.1//EN" "http://www.w3.org/Graphics/SVG/1.1/DTD/svg11.dtd"><svg width="100%" height="100%" viewBox="0 0 75 75" version="1.1" xmlns="http://www.w3.org/2000/svg" xmlns:xlink="http://www.w3.org/1999/xlink" xml:space="preserve" xmlns:serif="http://www.serif.com/" style="fill-rule:evenodd;clip-rule:evenodd;stroke-linejoin:round;stroke-miterlimit:2;"><path d="M70.92,24.56l-4.4,-0c-2.865,-13.673 -15.03,-23.552 -29,-23.552c-13.97,-0 -26.135,9.879 -29,23.552l-4.44,-0c-1.85,-0 -3.53,4.72 -3.53,9.09c0,3.4 1.94,8.65 3.53,8.65l5.85,-0c1,4 2.19,8.14 3.42,10.2c6.2,3.41 11.76,6.42 18.63,7.44l0,10c0.02,2.68 4.25,4.06 6.52,4.06c2.27,0 6.5,-1.47 6.5,-4.11l0,-10.44c0.313,-0.133 0.613,-0.273 0.9,-0.42c0.79,-0.22 1.57,-0.47 2.33,-0.73c5.9,-2 10.77,-4.94 12.66,-5.8c1.623,-3.315 3.055,-6.721 4.29,-10.2l5.7,0c1.59,0 3.53,-5.25 3.53,-8.65c0.04,-4.37 -1.63,-9.09 -3.49,-9.09Zm-68.11,9.16c-0.005,-0.053 -0.005,-0.107 -0,-0.16c-0.011,-1.723 0.197,-3.44 0.62,-5.11c0.4,-1 2.47,-3.18 3.44,-3.18c-0.26,2.755 -0.35,5.524 -0.27,8.29c-0,0.34 0.06,0.68 0.12,1l-0.6,0.09c-1.15,0.13 -1.28,-1.24 -2,-1.62c-0.53,-0.23 -0.92,0.23 -1.31,0.69Zm3.48,7.08c-0.858,0.001 -1.641,-0.501 -2,-1.28c-0.109,-0.141 -0.206,-0.292 -0.29,-0.45c0.512,-0.154 1.058,-0.154 1.57,-0c0.727,0.35 1.603,0.183 2.15,-0.41l0.66,2.09c-0.695,0.061 -1.393,0.078 -2.09,0.05Zm25.71,15.98c-1.55,-0.7 -2.37,-1.37 -2.74,-2.28c0.899,0.338 1.842,0.547 2.8,0.62l-0,0.68c0.003,0.334 0.026,0.668 0.07,1c0.044,0.332 -0.13,-0 -0.13,-0.02Zm3.44,14.74c-0.827,-0.231 -1.531,-0.777 -1.96,-1.52l-0,-3.64c0.81,0.09 1.58,0.15 2.35,0.2l-0.22,0.28c-0.55,0.71 -0,3.14 0.2,3.75c0.19,0.41 -0.39,0.62 -0.39,0.93l0.02,-0Zm0.56,-10.15c-0.22,0.49 -1,2.74 -0.34,3.57c0.072,0.086 0.138,0.176 0.2,0.27c-0.75,-0 -1.52,-0.11 -2.33,-0.2l-0,-4.32c0.83,-0.09 1.62,-0.17 2.38,-0.22c0.122,0.284 0.153,0.598 0.09,0.9Zm-0.84,-2.83c0.07,0.19 0.17,0.4 0.25,0.63c-0.61,-0 -1.23,0.1 -1.88,0.18l-0,-1c0.283,-1.232 1.033,-2.307 2.09,-3c0.086,0.281 0.113,0.578 0.08,0.87c-0.15,0.91 -0.94,1.44 -0.59,2.32l0.05,-0Zm-0,-4.42c-0.672,0.398 -1.268,0.913 -1.76,1.52c0.02,-1.98 1.102,-3.803 2.83,-4.77c-0.15,1.13 -1.23,2.76 -1.11,3.25l0.04,-0Zm8.31,15.88c-1.164,1.324 -2.838,2.092 -4.6,2.11c0.396,-0.904 0.47,-1.918 0.21,-2.87c-0.36,-1 -1.06,-1.57 -0.68,-2.59c1.694,-0.005 3.386,-0.098 5.07,-0.28l-0,3.63Zm-0,-5c-1.747,0.189 -3.503,0.286 -5.26,0.29c-0.29,-0.65 -0.74,-1.28 -0.68,-1.72c0.1,-0.75 0.41,-0.55 0.67,-1.62c0.075,-0.532 0.006,-1.074 -0.2,-1.57c1.821,-0.015 3.641,0.086 5.45,0.3l0.02,4.32Zm-0,-5.67c-1.974,-0.234 -3.963,-0.328 -5.95,-0.28c-0.09,-0.25 -0.18,-0.48 -0.24,-0.69c-0.28,-1 0.1,-1 0.22,-2.38c0.04,-0.445 0.01,-0.894 -0.09,-1.33c0.352,-0.072 0.711,-0.109 1.07,-0.11c2.314,-0.04 4.379,1.501 5,3.73l-0.01,1.06Zm-5,-6.13c-0.454,-0.004 -0.907,0.043 -1.35,0.14c-0.01,-0.126 -0.01,-0.254 -0,-0.38c0.101,-0.83 0.101,-1.67 -0,-2.5c0.423,-0.121 0.86,-0.181 1.3,-0.18c2.86,0.097 5.153,2.489 5.13,5.35c-1.239,-1.527 -3.103,-2.417 -5.07,-2.42l-0.01,-0.01Zm8.81,2.32c-0.77,0.31 -1.56,0.59 -2.35,0.84l-0,-0.57c0.062,-3.621 -2.831,-6.666 -6.45,-6.79c-0.932,-0.001 -1.852,0.211 -2.69,0.62c-0.553,-0.43 -0.987,-0.995 -1.26,-1.64c1.348,-0.375 2.741,-0.564 4.14,-0.56c5.26,0 9.69,2.58 9.69,5.63c-0.043,0.929 -0.423,1.811 -1.07,2.48l-0.01,-0.01Zm12.14,-7.36c-2.78,2.413 -5.879,4.432 -9.21,6c0.099,-0.379 0.153,-0.768 0.16,-1.16c-0,-4.28 -5.14,-7.64 -11.7,-7.64c-6.56,0 -11.67,3.36 -11.67,7.64c0.048,1.646 0.772,3.203 2,4.3c-0.7,-0.037 -1.383,-0.228 -2,-0.56c-2.74,-1.5 -4.77,-7.68 -5.12,-11.57c-3.35,-0.79 -8.58,-2.82 -9.79,-4.77c-0.663,-0.906 -1.083,-1.966 -1.22,-3.08c6,3.26 13.92,6 27.26,6c13.34,0 21.53,-4.49 25.51,-6c-1.64,5.68 -3.15,9.62 -4.21,10.85l-0.01,-0.01Zm-9.42,-27.35c3.09,0.53 9.71,2.76 10.68,3.79c0.97,1.03 0.7,4.65 -0,5.83c-1,1.74 -4.94,4.68 -7.76,6.2c2.62,-8.19 -0.64,-13 -2.92,-15.82Zm-12,-4.06c-10.93,0 -22.44,3.77 -27.08,5.69c-0,-1.79 0.66,-2.05 1.19,-2.91c4.15,-2.38 9.18,-3.53 15.41,-4.53c-0.129,-2.647 0.589,-5.268 2.05,-7.48c1.98,-2.399 4.834,-3.914 7.93,-4.21c6.003,0.221 11.83,2.101 16.83,5.43c4.76,3.44 8.21,9.79 9.34,14c-4.67,-2.88 -14.77,-5.99 -25.67,-5.99Zm33.43,11.7c0.406,1.672 0.597,3.389 0.57,5.11c0,0.28 -0.07,0.75 -0.16,1.33c-0.123,-0.271 -0.369,-0.468 -0.66,-0.53c-0.878,0.087 -1.732,0.334 -2.52,0.73c-0.224,0.046 -0.457,0.015 -0.66,-0.09c0.097,-0.485 0.161,-0.976 0.19,-1.47c0.114,-2.755 0.051,-5.514 -0.19,-8.26c0.94,0 3,2.2 3.41,3.18l0.02,0Zm-0.83,11.07c-0.363,0.776 -1.143,1.276 -2,1.28c-0.709,0.046 -1.421,0.046 -2.13,0c0.18,-0.55 0.35,-1.07 0.5,-1.57c0.769,-0.105 1.549,-0.081 2.31,0.07c0.549,0.029 1.096,-0.071 1.6,-0.29c-0.13,0.19 -0.22,0.36 -0.3,0.51l0.02,0Z" style="fill-rule:nonzero;"/></svg>