<?xml version="1.0" encoding="UTF-8" standalone="no"?><!DOCTYPE svg PUBLIC "-//W3C//DTD SVG 1.1//EN" "http://www.w3.org/Graphics/SVG/1.1/DTD/svg11.dtd"><svg width="100%" height="100%" viewBox="0 0 75 75" version="1.1" xmlns="http://www.w3.org/2000/svg" xmlns:xlink="http://www.w3.org/1999/xlink" xml:space="preserve" xmlns:serif="http://www.serif.com/" style="fill-rule:evenodd;clip-rule:evenodd;stroke-linejoin:round;stroke-miterlimit:2;"><g id="CompIcon"><path d="M22.62,27.45c-1.89,0.1 -3.391,1.682 -3.391,3.575c0,1.893 1.501,3.475 3.391,3.575c0.228,-0.003 0.456,-0.026 0.68,-0.07c1.685,-0.313 2.919,-1.796 2.919,-3.51c-0,-1.959 -1.612,-3.57 -3.57,-3.57c-0.01,-0 -0.019,-0 -0.029,0Zm1.27,6c0.142,-0.394 0.214,-0.811 0.21,-1.23c-0.004,-1.713 -1.2,-3.209 -2.87,-3.59c0.421,-0.249 0.901,-0.38 1.39,-0.38c1.504,0.011 2.739,1.246 2.75,2.75c0.01,1.032 -0.564,1.985 -1.48,2.46l0,-0.01Z" style="fill:#fff;fill-rule:nonzero;"/><path d="M13.77,10.39l0,25.61c0.011,1.742 1.447,3.17 3.19,3.17c0.013,0 0.027,0 0.04,0l11.11,0c1.742,0 3.179,-1.428 3.19,-3.17l0,-35.12c-6.691,1.265 -12.822,4.591 -17.53,9.51Zm8.85,27.15c-0.003,0 -0.007,0 -0.01,0c-3.577,0 -6.52,-2.943 -6.52,-6.52c0,-3.577 2.943,-6.52 6.52,-6.52c3.569,0 6.509,2.931 6.52,6.5c0.005,3.578 -2.932,6.529 -6.51,6.54Z" style="fill:#fff;fill-rule:nonzero;"/><path d="M52.85,26.61c-2.409,0.011 -4.393,1.981 -4.42,4.39c0.005,2.423 1.997,4.415 4.42,4.42c0.228,0 0.456,-0.02 0.68,-0.06c2.146,-0.326 3.748,-2.19 3.748,-4.36c0,-2.419 -1.991,-4.41 -4.41,-4.41c-0.006,-0 -0.012,-0 -0.018,0l0,0.02Zm1.51,7.63c0.316,-0.621 0.481,-1.309 0.481,-2.006c0,-2.139 -1.553,-3.987 -3.661,-4.354c0.514,-0.274 1.088,-0.417 1.67,-0.417c1.943,-0 3.543,1.594 3.55,3.537c0.013,1.384 -0.786,2.654 -2.04,3.24Z" style="fill:#fff;fill-rule:nonzero;"/><path d="M44.08,1l0,35c0,1.75 1.44,3.19 3.19,3.19l11.15,0c1.75,0 3.19,-1.44 3.19,-3.19l0,-25.2c-4.683,-5.008 -10.811,-8.434 -17.53,-9.8Zm8.77,36.58c-0.003,0 -0.006,0 -0.01,0c-3.576,0 -6.52,-2.943 -6.52,-6.52c0,-3.577 2.944,-6.52 6.52,-6.52c3.554,0 6.487,2.906 6.52,6.46c0.005,3.578 -2.932,6.529 -6.51,6.54l-0,0.04Z" style="fill:#fff;fill-rule:nonzero;"/><path d="M48.33,51.25l-8.48,-3c-0.737,-0.267 -1.516,-0.402 -2.3,-0.4c-0.809,-0.001 -1.611,0.141 -2.37,0.42l-8.11,3c-2.665,0.997 -4.443,3.555 -4.45,6.4l0,8.84c-0,4.522 3.718,8.245 8.24,8.25l13.73,0c4.525,-0.005 8.249,-3.725 8.26,-8.25l0,-8.84c-0,-2.873 -1.816,-5.451 -4.52,-6.42Zm-19.2,19c-0.007,0 -0.013,0 -0.02,0c-1.037,0 -1.89,-0.853 -1.89,-1.89c0,-1.037 0.853,-1.89 1.89,-1.89c1.029,0 1.879,0.841 1.89,1.87c0,1.028 -0.842,1.875 -1.87,1.88l0,0.03Zm0,-9.1c-0.003,0 -0.007,0 -0.01,0c-1.031,0 -1.88,-0.849 -1.88,-1.88c0,-1.031 0.849,-1.88 1.88,-1.88c1.02,0 1.864,0.83 1.88,1.85c0,1.028 -0.842,1.875 -1.87,1.88l0,0.03Zm8.37,5.35c-1.037,0 -1.89,-0.853 -1.89,-1.89c0,-1.037 0.853,-1.89 1.89,-1.89c1.037,0 1.89,0.853 1.89,1.89c-0.016,1.025 -0.864,1.86 -1.89,1.86l0,0.03Zm0,-9.1c-1.028,-0.005 -1.87,-0.852 -1.87,-1.88c0,-1.031 0.849,-1.88 1.88,-1.88c1.031,0 1.88,0.849 1.88,1.88c-0.016,1.024 -0.866,1.856 -1.89,1.85l-0,0.03Zm8.83,12.85c-1.037,-0 -1.89,-0.853 -1.89,-1.89c0,-1.037 0.853,-1.89 1.89,-1.89c1.037,0 1.89,0.853 1.89,1.89c0,0.003 0,0.007 -0,0.01c-0.016,1.024 -0.866,1.856 -1.89,1.85l-0,0.03Zm-0,-9.1c-1.028,-0.005 -1.87,-0.852 -1.87,-1.88c0,-1.031 0.849,-1.88 1.88,-1.88c1.031,0 1.88,0.849 1.88,1.88c-0.016,1.024 -0.866,1.856 -1.89,1.85l-0,0.03Z" style="fill:#fff;fill-rule:nonzero;"/><path d="M72.06,22.3l-1.06,-0.3c-0.22,-2.16 -0.93,-7.92 -1.15,-9.87c1.586,-0.278 2.755,-1.669 2.755,-3.28c0,-1.827 -1.503,-3.33 -3.33,-3.33c-1.827,0 -3.33,1.503 -3.33,3.33c0,1.611 1.169,3.002 2.755,3.28c-0.2,1.3 -0.61,4.08 -1,7.92c-0.948,-2.196 -2.139,-4.279 -3.55,-6.21l0,22.16c0,3.132 -2.578,5.71 -5.71,5.71l-11.17,0c-3.132,0 -5.71,-2.578 -5.71,-5.71l0,-35.45c-2.569,-0.329 -5.167,-0.346 -7.74,-0.05l0,35.5c0,3.132 -2.578,5.71 -5.71,5.71l-11.11,0c-0.013,0 -0.027,0 -0.04,0c-3.132,0 -5.71,-2.577 -5.71,-5.71l0,-22.65c-1.466,1.928 -2.71,4.014 -3.71,6.22c-0.35,-3.59 -0.73,-6.19 -0.92,-7.43c1.568,-0.28 2.72,-1.656 2.72,-3.249c0,-1.81 -1.49,-3.3 -3.3,-3.3c-1.81,0 -3.3,1.49 -3.3,3.3c0,1.593 1.152,2.969 2.72,3.249c-0.21,1.92 -0.91,7.61 -1.15,9.81l-1.38,0.33c-1.393,0.323 -2.391,1.57 -2.4,3l0,16.64c0.008,1.427 1.001,2.673 2.39,3l4,1l0.2,0l0.09,0.19c2.731,6.371 7.386,11.732 13.31,15.33l0,-3.82c0.005,-3.725 2.338,-7.074 5.83,-8.37l8.1,-3c1.974,-0.712 4.136,-0.712 6.11,0l8.44,3.02c3.558,1.258 5.964,4.626 6,8.4l0,3.48c5.704,-3.579 10.184,-8.812 12.84,-15l0.09,-0.19l0.2,0l4,-1c1.389,-0.327 2.382,-1.573 2.39,-3l0,-16.62c-0.001,-1.461 -1.031,-2.735 -2.46,-3.04Zm-67.7,-13.41c0,-0.894 0.736,-1.63 1.63,-1.63c0.894,0 1.63,0.736 1.63,1.63c-0,0.89 -0.73,1.625 -1.62,1.63c-0.003,0 -0.007,0 -0.01,0c-0.894,0 -1.63,-0.736 -1.63,-1.63c-0,0 -0,0 0,0Zm-2.36,32.17l0,-1.34c0.506,-0.243 1.116,-0.13 1.5,0.28c0.482,0.277 1.035,0.409 1.59,0.38c0.234,1.019 0.534,2.021 0.9,3c-2.08,-0.57 -3.99,-0.66 -3.99,-2.32Zm2.41,-7.68l0,0.28c-0.53,0.094 -1.036,0.291 -1.49,0.58c-0.105,0.082 -0.235,0.126 -0.368,0.126c-0.24,-0 -0.458,-0.145 -0.552,-0.366l0,-8c-0.113,-0.85 0.366,-1.676 1.16,-2c0.84,-0.22 2.84,-0.64 2.84,-0.64c-0.909,3.269 -1.443,6.63 -1.59,10.02Zm63.25,-24.49c0,-0.894 0.736,-1.63 1.63,-1.63c0.894,0 1.63,0.736 1.63,1.63c0,0.894 -0.736,1.63 -1.63,1.63c-0.894,0 -1.63,-0.736 -1.63,-1.63Zm5,32.17c0,1.66 -1.91,1.75 -4,2.33c0.38,-1.028 0.691,-2.08 0.93,-3.15c0.578,0.063 1.162,-0.019 1.7,-0.24c0.456,-0.164 0.936,-0.251 1.42,-0.26l-0.05,1.32Zm-0,-7c-0.16,0.085 -0.328,0.155 -0.5,0.21c-0.642,0.125 -1.307,0.07 -1.92,-0.16l-0,-0.76c-0.151,-3.382 -0.681,-6.736 -1.58,-10c-0.899,-3.264 2,0.42 2.83,0.67c0.797,0.321 1.277,1.149 1.16,2l0.01,8.04Z" style="fill:#fff;fill-rule:nonzero;"/></g></svg>