<svg xmlns="http://www.w3.org/2000/svg" viewBox="0 0 75 75"><defs><style>.cls-1{fill:#452f75;}</style></defs><g id="CompIcon"><path class="cls-1" d="M22.62,27.45a3.58,3.58,0,0,0,0,7.15,3.82,3.82,0,0,0,.68-.07,3.57,3.57,0,0,0-.68-7.08Zm1.27,6a3.53,3.53,0,0,0,.21-1.23,3.69,3.69,0,0,0-2.87-3.59,2.73,2.73,0,0,1,1.39-.38A2.77,2.77,0,0,1,25.37,31,2.74,2.74,0,0,1,23.89,33.46Z"/><path class="cls-1" d="M13.77,10.39V36A3.19,3.19,0,0,0,17,39.17H28.11A3.19,3.19,0,0,0,31.3,36V.88A32.66,32.66,0,0,0,13.77,10.39Zm8.85,27.15A6.52,6.52,0,1,1,29.13,31,6.53,6.53,0,0,1,22.62,37.54Z"/><path class="cls-1" d="M52.85,26.61A4.44,4.44,0,0,0,48.43,31a4.43,4.43,0,0,0,4.42,4.42,3.82,3.82,0,0,0,.68-.06,4.41,4.41,0,0,0-.68-8.77Zm1.51,7.63a4.42,4.42,0,0,0-3.18-6.36A3.55,3.55,0,0,1,56.4,31,3.54,3.54,0,0,1,54.36,34.24Z"/><path class="cls-1" d="M44.08,1V36a3.19,3.19,0,0,0,3.19,3.19H58.42A3.19,3.19,0,0,0,61.61,36V10.8A33,33,0,0,0,44.08,1Zm8.77,36.58A6.52,6.52,0,1,1,59.36,31,6.53,6.53,0,0,1,52.85,37.54Z"/><path class="cls-1" d="M48.33,51.25l-8.48-3a6.71,6.71,0,0,0-2.3-.4,6.84,6.84,0,0,0-2.37.42l-8.11,3a6.85,6.85,0,0,0-4.45,6.4v8.84a8.25,8.25,0,0,0,8.24,8.25H44.59a8.27,8.27,0,0,0,8.26-8.25V57.67A6.82,6.82,0,0,0,48.33,51.25Zm-19.2,19A1.89,1.89,0,1,1,31,68.34,1.88,1.88,0,0,1,29.13,70.22Zm0-9.1A1.88,1.88,0,1,1,31,59.24,1.88,1.88,0,0,1,29.13,61.12Zm8.37,5.35a1.89,1.89,0,1,1,1.89-1.89A1.89,1.89,0,0,1,37.5,66.47Zm0-9.1a1.88,1.88,0,1,1,1.89-1.88A1.88,1.88,0,0,1,37.5,57.37Zm8.83,12.85a1.89,1.89,0,1,1,1.89-1.88A1.88,1.88,0,0,1,46.33,70.22Zm0-9.1a1.88,1.88,0,1,1,1.89-1.88A1.88,1.88,0,0,1,46.33,61.12Z"/><path class="cls-1" d="M72.06,22.3,71,22c-.22-2.16-.93-7.92-1.15-9.87a3.33,3.33,0,1,0-1.15,0c-.2,1.3-.61,4.08-1,7.92a32.08,32.08,0,0,0-3.55-6.21V36a5.71,5.71,0,0,1-5.71,5.71H47.27A5.71,5.71,0,0,1,41.56,36V.55A32.07,32.07,0,0,0,33.82.5V36a5.71,5.71,0,0,1-5.71,5.71H17A5.71,5.71,0,0,1,11.25,36V13.35a32.36,32.36,0,0,0-3.71,6.22c-.35-3.59-.73-6.19-.92-7.43a3.3,3.3,0,1,0-1.16,0c-.21,1.92-.91,7.61-1.15,9.81l-1.38.33a3.1,3.1,0,0,0-2.4,3V41.92a3.1,3.1,0,0,0,2.39,3l4,1,.2,0,.09.19A33.28,33.28,0,0,0,20.52,61.44V57.62a8.94,8.94,0,0,1,5.83-8.37l8.1-3a9,9,0,0,1,6.11,0L49,49.27A9,9,0,0,1,55,57.67v3.48a33.14,33.14,0,0,0,12.84-15l.09-.19.2,0,4-1a3.1,3.1,0,0,0,2.39-3V25.34A3.11,3.11,0,0,0,72.06,22.3ZM4.36,8.89A1.63,1.63,0,1,1,6,10.52,1.63,1.63,0,0,1,4.36,8.89ZM2,41.06V39.72A1.29,1.29,0,0,1,3.5,40a2.89,2.89,0,0,0,1.59.38,23.76,23.76,0,0,0,.9,3C3.91,42.81,2,42.72,2,41.06Zm2.41-7.68v.28a4.11,4.11,0,0,0-1.49.58A.6.6,0,0,1,2,34V26a1.89,1.89,0,0,1,1.16-2C4,23.78,6,23.36,6,23.36A44.63,44.63,0,0,0,4.41,33.38ZM67.66,8.89a1.63,1.63,0,1,1,1.63,1.63A1.63,1.63,0,0,1,67.66,8.89Zm5,32.17c0,1.66-1.91,1.75-4,2.33a24.44,24.44,0,0,0,.93-3.15A3.48,3.48,0,0,0,71.29,40a4.44,4.44,0,0,1,1.42-.26Zm0-7a3.09,3.09,0,0,1-.5.21,3.54,3.54,0,0,1-1.92-.16c0-.26,0-.51,0-.76a45.23,45.23,0,0,0-1.58-10s2,.42,2.83.67a1.88,1.88,0,0,1,1.16,2Z"/></g></svg>